<svg width="1920" height="237" viewBox="0 0 1920 237" fill="none" xmlns="http://www.w3.org/2000/svg">
<g clip-path="url(#clip0_858_595)">
<path fill-rule="evenodd" clip-rule="evenodd" d="M704.282 130.291C705.459 129.217 706.688 128.116 707.942 127.067C716.723 119.673 727.757 113.352 720.742 111.484C702.822 106.776 686.464 131.955 682.88 121.72C679.296 111.484 699.213 85.4363 690.79 85.5898C684.774 85.5898 670.49 98.2557 664.141 115.604C657.997 93.8546 646.374 85.9992 644.096 90.2211C641.818 94.4431 644.736 104.32 645.325 107.698C592 62.6121 614.912 96.3366 630.963 114.069C647.014 131.801 614.4 105.932 595.61 103.066C576.819 100.2 606.848 125.225 606.848 125.225C595.799 121.363 583.999 120.136 572.39 121.643C539.546 126.914 781.722 182.848 756.198 146.565C749.491 137.021 719.36 140.578 719.36 140.578C719.36 140.578 731.674 137.405 730.419 130.624C729.421 124.739 716.8 126.121 704.282 130.291Z" fill="#5C7B3C"/>
<path fill-rule="evenodd" clip-rule="evenodd" d="M314.112 70.9766C315.136 69.774 316.237 68.5458 317.363 67.3432C325.223 58.976 335.411 51.4277 328.167 50.4042C309.863 47.8454 296.499 74.6101 291.763 65.0659C287.027 55.5217 303.744 27.145 295.399 28.2708C289.434 29.0641 276.711 43.214 272.359 61.2021C263.731 40.3226 251.264 33.8745 249.498 38.3268C247.731 42.779 251.776 52.2465 252.775 55.5473C194.535 16.9867 221.235 47.871 239.232 63.5562C257.229 79.2414 221.927 57.2872 202.906 56.6475C183.885 56.0079 216.653 77.3224 216.653 77.3224C205.227 74.7876 193.366 74.9541 182.016 77.8085C150.016 86.8921 397.056 114.143 367.488 81.0582C359.808 72.3584 330.291 79.4205 330.291 79.4205C330.291 79.4205 342.119 74.8404 340.096 68.2643C338.407 62.5071 325.991 65.3729 314.112 70.9766Z" fill="#5C7B3C"/>
<path fill-rule="evenodd" clip-rule="evenodd" d="M1214.59 307.892L1204.02 380.996H25.6L0 377.516V94.6706C383.462 67.036 871.475 143.057 1214.59 307.892Z" fill="#5C7B3C"/>
<path fill-rule="evenodd" clip-rule="evenodd" d="M1695.31 42.3972C1696.21 40.9388 1697.18 39.4803 1698.18 37.9962C1705.14 27.7611 1714.71 18.1402 1706.83 18.2425C1686.99 18.4984 1677.24 49.178 1670.63 39.8129C1664.03 30.4478 1677.08 -2.4323 1668.4 0.152048C1662.21 1.96877 1651.05 19.1125 1649.46 38.8917C1636.86 18.1402 1622.55 13.3041 1621.3 18.4216C1620.05 23.5392 1626.01 32.8275 1627.6 36.1539C1559.4 4.809 1592.83 33.1345 1614.57 46.8751C1636.3 60.6156 1595.16 43.0881 1574.86 45.5445C1554.56 48.0009 1592.78 65.2214 1592.78 65.2214C1580.23 64.4192 1567.67 66.5571 1556.1 71.4648C1523.61 86.3824 1790.39 74.5353 1753.52 44.3163C1743.82 36.3842 1713.77 48.7174 1713.77 48.7174C1713.77 48.7174 1725.57 41.9111 1722.34 35.2327C1719.71 29.4243 1707.01 34.4907 1695.31 42.3972Z" fill="#7E973B"/>
<path fill-rule="evenodd" clip-rule="evenodd" d="M1297.92 136.814C1047.42 192.39 804.608 276.574 605.748 380.997H1920V51.4023C1719.55 57.2875 1505.28 87.353 1297.92 136.814Z" fill="#7E973B"/>
<path fill-rule="evenodd" clip-rule="evenodd" d="M978.355 210.326C634.24 207.383 288.358 250.754 0 339.902V380.995H1920V328.899C1639.22 247.07 1307.98 207.511 978.355 210.326Z" fill="#9BB13C"/>
<path fill-rule="evenodd" clip-rule="evenodd" d="M457.319 291.98C523.162 284.994 672.359 279.391 700.391 300.398C728.423 321.406 365.543 341.006 313.831 332.613C262.119 324.22 322.227 297.583 457.421 291.98H457.319ZM1751.65 286.146C1596.19 252.037 1429.73 229.392 1259.7 218.262C1201.2 219.388 1145.09 222.612 1095.86 228.497C1069.59 236.173 1072.03 243.542 1109.86 243.542H1169.05L1189.71 242.851L1186.92 261.761C1186.92 261.761 1164.49 277.497 1197.16 283.459C1229.82 289.421 1352.65 291.135 1382.09 281.361C1411.53 271.586 1440.23 282.052 1440.23 282.052C1440.23 282.052 1466.04 304.492 1531.88 304.492C1581.44 304.492 1688.14 299.375 1751.65 286.146Z" fill="#7E973B"/>
<path fill-rule="evenodd" clip-rule="evenodd" d="M790.144 198.353C791.015 197.048 791.962 195.794 792.935 194.361C799.744 185.124 808.96 176.45 801.639 176.245C783.155 175.861 773.095 204.059 767.258 195.155C761.421 186.25 774.631 156.082 766.464 158.18C760.627 159.69 749.696 175.273 747.597 193.619C736.538 173.917 723.379 169.004 722.176 173.635C720.973 178.267 726.093 187.197 727.475 190.344C665.063 158.999 695.245 186.429 715.008 199.914C734.771 213.399 697.088 195.769 678.093 197.355C659.098 198.942 694.221 216.239 694.221 216.239C682.575 215.092 670.822 216.669 659.891 220.845C629.171 233.638 877.722 231.284 844.416 201.986C835.661 194.31 807.271 204.776 807.271 204.776C807.271 204.776 818.483 198.814 815.693 192.519C813.261 187.069 801.28 191.393 790.144 198.353Z" fill="#9BB13C"/>
</g>
<defs>
<clipPath id="clip0_858_595">
<rect width="1920" height="237" fill="white"/>
</clipPath>
</defs>
</svg>
