<svg width="173" height="173" viewBox="0 0 173 173" fill="none" xmlns="http://www.w3.org/2000/svg">
<path fill-rule="evenodd" clip-rule="evenodd" d="M173 0H0V173H173V0ZM85.8082 22.1228C84.4729 22.1228 83.3905 23.2052 83.3905 24.5405V30.0485C83.3905 31.3838 84.4729 32.4662 85.8082 32.4662C87.1434 32.4662 88.2259 31.3838 88.2259 30.0485V24.5405C88.2259 23.2052 87.1434 22.1228 85.8082 22.1228ZM63.7481 48.8827C68.0293 48.2842 72.3283 47.8557 76.6351 47.597C78.1748 42.4423 82.034 38.7873 86.5512 38.7873C91.071 38.7873 94.9321 42.4467 96.47 47.6063C107.903 48.3035 119.282 50.1984 130.415 53.291C130.47 53.3064 130.526 53.3221 130.581 53.3381C130.712 53.3758 130.842 53.4151 130.971 53.456C137.77 55.604 142.429 61.9218 142.429 69.0971V74.8626L148.199 78.4956V93.2832L142.429 96.9162V101.099C142.429 111.559 135.724 120.638 126.126 123.918C124.754 124.386 123.324 124.736 121.846 124.955C98.3944 128.43 74.5587 128.43 51.107 124.955C39.2817 123.204 30.5239 113.053 30.5239 101.099V96.9013L24.7775 93.2832V78.4956L30.5239 74.8775V69.0971C30.5239 61.728 35.4376 55.2633 42.5378 53.291C49.5271 51.3496 56.6128 49.8801 63.7481 48.8827ZM73.0038 31.8773C72.0596 30.9331 70.5288 30.9331 69.5846 31.8773C68.6405 32.8214 68.6405 34.3522 69.5846 35.2964L70.2288 35.9406C71.173 36.8847 72.7038 36.8847 73.6479 35.9406C74.5921 34.9964 74.5921 33.4656 73.6479 32.5214L73.0038 31.8773ZM102.38 31.8773C101.436 30.9331 99.9051 30.9331 98.9609 31.8773L98.3168 32.5214C97.3726 33.4656 97.3726 34.9964 98.3168 35.9406C99.2609 36.8847 100.792 36.8847 101.736 35.9406L102.38 35.2964C103.324 34.3522 103.324 32.8214 102.38 31.8773ZM133.794 101.099V69.0971C133.794 65.7704 131.68 62.8328 128.57 61.7558C128.417 61.7029 128.262 61.6544 128.104 61.6106C106.563 55.6271 84.0548 54.3759 62.1093 57.857C56.3072 58.7774 50.5443 60.0286 44.8492 61.6106C41.4862 62.5448 39.1588 65.6068 39.1588 69.0971V101.099C39.1588 107.814 43.463 113.642 49.6247 115.748C50.5049 116.049 51.4231 116.273 52.372 116.414C55.1985 116.833 58.0311 117.199 60.8678 117.513C80.7248 119.712 100.794 119.345 120.581 116.414C128.172 115.289 133.794 108.773 133.794 101.099ZM85.903 142.887C86.0225 142.836 86.1228 142.765 86.2039 142.682C86.285 142.765 86.3853 142.836 86.5049 142.887L104.692 150.727C106.519 151.515 108.556 150.175 108.556 148.185L108.556 135.894C108.556 133.905 106.519 132.565 104.692 133.352L86.5049 141.192C86.3853 141.244 86.285 141.315 86.2039 141.398C86.1228 141.315 86.0225 141.244 85.903 141.192L67.7163 133.352C65.889 132.565 63.8523 133.905 63.8523 135.894V148.185C63.8523 150.175 65.889 151.515 67.7163 150.727L85.903 142.887ZM99.4379 82.1742C101.842 79.7704 105.739 79.7704 108.143 82.1742L112.123 86.154C113.245 87.276 113.245 89.0952 112.123 90.2173C111.001 91.3393 109.181 91.3393 108.059 90.2173L105.967 88.1246C104.765 86.9227 102.816 86.9227 101.614 88.1246L99.5214 90.2173C98.3994 91.3393 96.5802 91.3393 95.4581 90.2173C94.3361 89.0952 94.3361 87.276 95.4581 86.154L99.4379 82.1742ZM73.3975 82.2151C70.9937 79.8113 67.0964 79.8113 64.6926 82.2151L60.7128 86.1949C59.5908 87.3169 59.5908 89.1361 60.7128 90.2581C61.8349 91.3802 63.6541 91.3802 64.7761 90.2581L66.8688 88.1654C68.0707 86.9635 70.0194 86.9635 71.2213 88.1654L73.314 90.2581C74.436 91.3802 76.2552 91.3802 77.3773 90.2581C78.4993 89.1361 78.4993 87.3169 77.3773 86.1949L73.3975 82.2151Z" fill="#E6DEB9"/>
</svg>
