<svg width="41" height="40" viewBox="0 0 41 40" fill="none" xmlns="http://www.w3.org/2000/svg">
<mask id="mask0_936_458" style="mask-type:alpha" maskUnits="userSpaceOnUse" x="0" y="0" width="41" height="40">
<rect x="0.666504" width="40" height="40" fill="#D9D9D9"/>
</mask>
<g mask="url(#mask0_936_458)">
<path d="M20.6385 36.6109C18.5737 36.6109 16.6316 36.2197 14.8121 35.4373C12.9927 34.6549 11.4094 33.5901 10.0621 32.2428C8.71491 30.8956 7.64547 29.3123 6.8538 27.4928C6.06213 25.6734 5.6663 23.7245 5.6663 21.6461C5.6663 19.5677 6.06213 17.6209 6.8538 15.8058C7.64547 13.9907 8.71491 12.4049 10.0621 11.0484C11.4094 9.69192 12.9927 8.62248 14.8121 7.84009C16.6316 7.05767 18.5737 6.66646 20.6385 6.66646C22.7033 6.66646 24.6455 7.05767 26.4649 7.84009C28.2844 8.62248 29.8723 9.69192 31.2288 11.0484C32.5853 12.4049 33.6547 13.9907 34.4371 15.8058C35.2196 17.6209 35.6108 19.5677 35.6108 21.6461C35.6108 23.7245 35.2196 25.6734 34.4371 27.4928C33.6547 29.3123 32.5853 30.8956 31.2288 32.2428C29.8723 33.5901 28.2844 34.6549 26.4649 35.4373C24.6455 36.2197 22.7033 36.6109 20.6385 36.6109ZM25.5552 28.4998L27.4996 26.5553L22.1108 21.1665V13.3331H19.333V22.2776L25.5552 28.4998ZM9.72184 3.88867L11.6663 5.83313L4.74963 12.5831L2.80518 10.6387L9.72184 3.88867ZM31.5552 3.88867L38.4718 10.6387L36.5274 12.5831L29.6108 5.83313L31.5552 3.88867ZM20.6397 33.8331C24.0371 33.8331 26.9186 32.6499 29.2844 30.2833C31.6501 27.9168 32.833 25.0349 32.833 21.6375C32.833 18.2401 31.6497 15.3586 29.2832 12.9928C26.9166 10.6271 24.0347 9.44421 20.6373 9.44421C17.24 9.44421 14.3584 10.6275 11.9927 12.994C9.62693 15.3606 8.44405 18.2425 8.44405 21.6399C8.44405 25.0372 9.62733 27.9188 11.9939 30.2845C14.3604 32.6503 17.2424 33.8331 20.6397 33.8331Z" fill="#907A48"/>
</g>
</svg>
