<svg width="40" height="40" viewBox="0 0 40 40" fill="none" xmlns="http://www.w3.org/2000/svg">
<mask id="mask0_967_469" style="mask-type:alpha" maskUnits="userSpaceOnUse" x="0" y="0" width="40" height="40">
<rect width="40" height="40" fill="#D9D9D9"/>
</mask>
<g mask="url(#mask0_967_469)">
<path d="M20.0002 36.6673C17.0558 36.6673 14.653 36.2252 12.7919 35.3409C10.9308 34.4567 10.0002 33.3247 10.0002 31.9451C10.0002 31.121 10.3613 30.3664 11.0835 29.6812C11.8058 28.996 12.8011 28.4451 14.0696 28.0284L14.8891 30.6951C14.4354 30.834 14.0187 31.0215 13.6391 31.2576C13.2594 31.4937 12.9724 31.7229 12.778 31.9451C13.2131 32.4636 14.1437 32.9173 15.5696 33.3062C16.9956 33.6951 18.4724 33.8896 20.0002 33.8896C21.528 33.8896 23.0118 33.6951 24.4516 33.3062C25.8914 32.9173 26.8289 32.4636 27.2641 31.9451C27.0697 31.7414 26.7873 31.5215 26.4169 31.2854C26.0465 31.0493 25.6252 30.8525 25.153 30.6951L25.9447 28.0284C27.2132 28.4451 28.2062 28.996 28.9238 29.6812C29.6414 30.3664 30.0002 31.121 30.0002 31.9451C30.0002 33.3247 29.0696 34.4567 27.2085 35.3409C25.3474 36.2252 22.9446 36.6673 20.0002 36.6673ZM20.0002 26.9868C20.5577 25.959 21.1461 25.0169 21.7655 24.1604C22.385 23.3039 22.9956 22.4914 23.5975 21.7229C24.7548 20.2229 25.6715 18.915 26.3475 17.7993C27.0234 16.6835 27.3613 15.2407 27.3613 13.4708C27.3613 11.4215 26.6464 9.68261 25.2165 8.25428C23.7866 6.82591 22.0459 6.11174 19.9942 6.11174C17.9427 6.11174 16.2039 6.82591 14.778 8.25428C13.352 9.68261 12.6391 11.4215 12.6391 13.4708C12.6391 15.2407 12.977 16.6835 13.653 17.7993C14.3289 18.915 15.2456 20.2229 16.403 21.7229C17.0048 22.4914 17.6155 23.3039 18.2349 24.1604C18.8543 25.0169 19.4427 25.959 20.0002 26.9868ZM20.0002 32.0562C19.6761 32.0562 19.3891 31.9634 19.1391 31.7779C18.8891 31.5923 18.7085 31.3425 18.5974 31.0284C17.94 29.0192 17.1158 27.3479 16.1247 26.0146C15.1336 24.6812 14.1708 23.4035 13.2363 22.1812C12.3104 20.959 11.5164 19.6905 10.8544 18.3757C10.1923 17.0608 9.86133 15.4262 9.86133 13.4717C9.86133 10.6392 10.8411 8.24139 12.8007 6.27844C14.7604 4.31547 17.1602 3.33398 20.0002 3.33398C22.8402 3.33398 25.2401 4.31379 27.1997 6.2734C29.1593 8.23304 30.1391 10.6329 30.1391 13.4729C30.1391 15.4266 29.8116 17.0594 29.1565 18.3712C28.5014 19.6831 27.704 20.9531 26.7641 22.1812C25.8382 23.4035 24.8775 24.6812 23.8822 26.0146C22.8868 27.3479 22.0617 29.0167 21.4071 31.021C21.2932 31.3315 21.1113 31.5817 20.8613 31.7715C20.6113 31.9613 20.3243 32.0562 20.0002 32.0562ZM20.006 16.3201C20.7892 16.3201 21.4585 16.0404 22.0141 15.481C22.5696 14.9216 22.8474 14.2503 22.8474 13.4671C22.8474 12.6839 22.5677 12.0145 22.0083 11.459C21.4489 10.9035 20.7776 10.6257 19.9944 10.6257C19.2112 10.6257 18.5419 10.9054 17.9863 11.4648C17.4308 12.0242 17.153 12.6955 17.153 13.4787C17.153 14.2618 17.4327 14.9312 17.9921 15.4868C18.5515 16.0423 19.2228 16.3201 20.006 16.3201Z" fill="#907A48"/>
</g>
</svg>
