<svg width="25" height="24" viewBox="0 0 25 24" fill="none" xmlns="http://www.w3.org/2000/svg">
<g id="Icon">
<mask id="mask0_1130_531" style="mask-type:alpha" maskUnits="userSpaceOnUse" x="0" y="0" width="25" height="24">
<rect id="Bounding box" x="0.5" width="24" height="24" fill="#D9D9D9"/>
</mask>
<g mask="url(#mask0_1130_531)">
<path id="fastfood" d="M1.5 15C1.5 13.1833 2.25833 11.7292 3.775 10.6375C5.29167 9.54583 7.03333 9 9 9C10.9667 9 12.7083 9.54583 14.225 10.6375C15.7417 11.7292 16.5 13.1833 16.5 15H1.5ZM1.5 19V17H16.5V19H1.5ZM2.5 23C2.21667 23 1.97917 22.9042 1.7875 22.7125C1.59583 22.5208 1.5 22.2833 1.5 22V21H16.5V22C16.5 22.2833 16.4042 22.5208 16.2125 22.7125C16.0208 22.9042 15.7833 23 15.5 23H2.5ZM18.5 23V15C18.5 13.1 17.85 11.4583 16.55 10.075C15.25 8.69167 13.6583 7.76667 11.775 7.3L11.5 5H16.5V1H18.5V5H23.5L21.875 21.2C21.825 21.7167 21.6125 22.1458 21.2375 22.4875C20.8625 22.8292 20.4167 23 19.9 23H18.5Z" fill="#3B2E1E"/>
</g>
</g>
</svg>
