<svg width="380" height="380" viewBox="0 0 380 380" fill="none" xmlns="http://www.w3.org/2000/svg">
<path d="M190 182.083C179.502 182.083 169.434 177.913 162.01 170.49C154.587 163.066 150.417 152.998 150.417 142.5C150.417 132.002 154.587 121.934 162.01 114.51C169.434 107.087 179.502 102.917 190 102.917C200.498 102.917 210.566 107.087 217.99 114.51C225.413 121.934 229.583 132.002 229.583 142.5C229.583 147.698 228.56 152.845 226.57 157.648C224.581 162.45 221.665 166.814 217.99 170.49C214.314 174.165 209.95 177.081 205.148 179.07C200.345 181.06 195.198 182.083 190 182.083ZM190 31.6667C160.605 31.6667 132.414 43.3437 111.629 64.129C90.8437 84.9143 79.1667 113.105 79.1667 142.5C79.1667 225.625 190 348.333 190 348.333C190 348.333 300.833 225.625 300.833 142.5C300.833 113.105 289.156 84.9143 268.371 64.129C247.586 43.3437 219.395 31.6667 190 31.6667Z" fill="#3B2E1E"/>
</svg>
