<svg width="40" height="40" viewBox="0 0 40 40" fill="none" xmlns="http://www.w3.org/2000/svg">
<mask id="mask0_969_601" style="mask-type:alpha" maskUnits="userSpaceOnUse" x="0" y="0" width="40" height="40">
<rect width="40" height="40" fill="#D9D9D9"/>
</mask>
<g mask="url(#mask0_969_601)">
<path d="M23.4446 35.8618C22.8983 36.4081 22.2316 36.6812 21.4446 36.6812C20.6576 36.6812 19.9909 36.4081 19.4446 35.8618L4.13904 20.5562C3.85201 20.2692 3.646 19.9543 3.521 19.6117C3.396 19.2692 3.3335 18.9081 3.3335 18.5284V6.11174C3.3335 5.32471 3.59969 4.665 4.13208 4.13261C4.66452 3.60019 5.32425 3.33398 6.11125 3.33398H18.528C18.9076 3.33398 19.2779 3.39648 19.639 3.52148C20.0001 3.64648 20.3242 3.8525 20.6112 4.13953L35.8613 19.4034C36.4261 19.9682 36.7085 20.6419 36.7085 21.4243C36.7085 22.2067 36.4261 22.8803 35.8613 23.4451L23.4446 35.8618ZM21.514 33.9451L33.9307 21.5284L18.528 6.11174H6.11125V18.5284L21.514 33.9451ZM10.4168 12.6673C11.0372 12.6673 11.5719 12.4428 12.021 11.9937C12.4701 11.5446 12.6946 11.0099 12.6946 10.3895C12.6946 9.76917 12.4701 9.23444 12.021 8.78536C11.5719 8.3363 11.0372 8.11178 10.4168 8.11178C9.79644 8.11178 9.26172 8.3363 8.81266 8.78536C8.36358 9.23444 8.13904 9.76917 8.13904 10.3895C8.13904 11.0099 8.36358 11.5446 8.81266 11.9937C9.26172 12.4428 9.79644 12.6673 10.4168 12.6673Z" fill="#907A48"/>
</g>
</svg>
