<svg width="24" height="24" viewBox="0 0 24 24" fill="none" xmlns="http://www.w3.org/2000/svg">
<mask id="mask0_865_1066" style="mask-type:alpha" maskUnits="userSpaceOnUse" x="0" y="0" width="24" height="24">
<rect width="24" height="24" fill="#D9D9D9"/>
</mask>
<g mask="url(#mask0_865_1066)">
<path d="M19.7999 22.5998L16.7749 19.5748C16.3582 19.8415 15.9166 20.0706 15.4499 20.2623C14.9832 20.454 14.4999 20.6081 13.9999 20.7248V18.6748C14.2332 18.5915 14.4624 18.5081 14.6874 18.4248C14.9124 18.3415 15.1249 18.2415 15.3249 18.1248L11.9999 14.7998V19.9998L6.9999 14.9998H2.9999V8.99981H6.1999L1.3999 4.1998L2.7999 2.7998L21.1999 21.1998L19.7999 22.5998ZM19.5999 16.7998L18.1499 15.3498C18.4332 14.8331 18.6457 14.2915 18.7874 13.7248C18.9291 13.1581 18.9999 12.5748 18.9999 11.9748C18.9999 10.4081 18.5416 9.00814 17.6249 7.77481C16.7082 6.54147 15.4999 5.70814 13.9999 5.2748V3.2248C16.0666 3.69147 17.7499 4.7373 19.0499 6.3623C20.3499 7.98731 20.9999 9.85814 20.9999 11.9748C20.9999 12.8581 20.8791 13.7081 20.6374 14.5248C20.3957 15.3415 20.0499 16.0998 19.5999 16.7998ZM16.2499 13.4498L13.9999 11.1998V7.94981C14.7832 8.31647 15.3957 8.86647 15.8374 9.59981C16.2791 10.3331 16.4999 11.1331 16.4999 11.9998C16.4999 12.2498 16.4791 12.4956 16.4374 12.7373C16.3957 12.979 16.3332 13.2165 16.2499 13.4498ZM11.9999 9.19981L9.3999 6.59981L11.9999 3.9998V9.19981Z" fill="white"/>
</g>
</svg>
