<svg width="63" height="73" viewBox="0 0 63 73" fill="none" xmlns="http://www.w3.org/2000/svg">
<path fill-rule="evenodd" clip-rule="evenodd" d="M35.5509 11.8778C35.5522 11.8257 35.5528 11.7733 35.5528 11.7208C35.5528 9.01219 33.8602 6.81641 31.7723 6.81641C29.6844 6.81641 27.9918 9.01219 27.9918 11.7208C27.9918 11.826 27.9944 11.9304 27.9994 12.0339C29.2241 11.7839 30.6694 11.6395 32.2172 11.6395C33.4069 11.6395 34.536 11.7248 35.5509 11.8778Z" fill="white"/>
<path d="M9.80448 20.9378L12.261 19.3911V27.7432L9.80448 26.1965V20.9378Z" fill="white"/>
<rect x="30.6482" y="0.890625" width="1.71955" height="3.67832" rx="0.859777" fill="white"/>
<rect width="1.71955" height="2.04351" rx="0.859777" transform="matrix(-0.707107 0.707107 0.707107 0.707107 26.3468 3.75195)" fill="white"/>
<rect x="36.7935" y="3.75195" width="1.71955" height="2.04351" rx="0.859777" transform="rotate(45 36.7935 3.75195)" fill="white"/>
<path fill-rule="evenodd" clip-rule="evenodd" d="M48.5729 28.9758V17.5955C48.5729 16.3543 47.7452 15.2654 46.5493 14.9332C36.8637 12.2427 26.628 12.2427 16.9424 14.9332C15.7464 15.2654 14.9188 16.3543 14.9188 17.5955V28.9758C14.9188 31.705 16.918 34.0223 19.6177 34.4222C27.6592 35.6136 35.8324 35.6136 43.8739 34.4222C46.5736 34.0223 48.5729 31.705 48.5729 28.9758ZM16.1205 11.9746C13.5956 12.676 11.8481 14.9749 11.8481 17.5955V28.9758C11.8481 33.2271 14.9624 36.8367 19.1677 37.4597C27.5076 38.6952 35.984 38.6952 44.3239 37.4597C48.5292 36.8367 51.6435 33.2271 51.6435 28.9758V17.5955C51.6435 14.9749 49.8961 12.676 47.3712 11.9746C37.1478 9.13477 26.3439 9.13477 16.1205 11.9746Z" fill="white"/>
<path fill-rule="evenodd" clip-rule="evenodd" d="M31.649 43.7633C31.6202 43.793 31.5845 43.8181 31.5419 43.8365L25.0744 46.6246C24.4246 46.9047 23.7003 46.4282 23.7003 45.7206L23.7003 41.3497C23.7003 40.6421 24.4246 40.1656 25.0744 40.4457L31.5419 43.2338C31.5845 43.2522 31.6202 43.2773 31.649 43.3069C31.6779 43.2773 31.7136 43.2522 31.7561 43.2338L38.2236 40.4457C38.8735 40.1656 39.5977 40.6421 39.5977 41.3497V45.7206C39.5977 46.4282 38.8735 46.9047 38.2236 46.6246L31.7561 43.8365C31.7136 43.8181 31.6779 43.793 31.649 43.7633Z" fill="white"/>
<path d="M53.6955 20.9378L51.239 19.3911V27.7432L53.6955 26.1965V20.9378Z" fill="white"/>
<path fill-rule="evenodd" clip-rule="evenodd" d="M36.3551 22.2461C37.2099 21.3912 38.5958 21.3912 39.4507 22.2461L40.866 23.6613C41.265 24.0604 41.265 24.7073 40.866 25.1063C40.4669 25.5053 39.82 25.5053 39.421 25.1063L38.6768 24.3621C38.2494 23.9347 37.5564 23.9347 37.129 24.3621L36.3848 25.1063C35.9857 25.5053 35.3388 25.5053 34.9398 25.1063C34.5408 24.7073 34.5408 24.0604 34.9398 23.6613L36.3551 22.2461Z" fill="white"/>
<path fill-rule="evenodd" clip-rule="evenodd" d="M23.999 22.2607C24.8538 21.4059 26.2398 21.4059 27.0946 22.2607L28.5099 23.676C28.9089 24.075 28.9089 24.7219 28.5099 25.121C28.1109 25.52 27.4639 25.52 27.0649 25.121L26.3207 24.3768C25.8933 23.9493 25.2003 23.9493 24.7729 24.3768L24.0287 25.121C23.6297 25.52 22.9827 25.52 22.5837 25.121C22.1847 24.7219 22.1847 24.075 22.5837 23.676L23.999 22.2607Z" fill="white"/>
<path d="M5.46776 59.9691H2.94889V63.061H5.46776C5.9742 63.061 6.39623 62.91 6.73385 62.6079C7.08036 62.3058 7.25362 61.9327 7.25362 61.4884C7.25362 61.0531 7.08481 60.6932 6.74718 60.4089C6.40956 60.1157 5.98308 59.9691 5.46776 59.9691ZM6.21409 64.3538L8.78626 67.8589H7.06704L4.57482 64.4871H2.94889V67.8589H1.48288V58.5297H5.60103C6.52506 58.5297 7.28472 58.8096 7.88001 59.3694C8.48418 59.9202 8.78626 60.6399 8.78626 61.5284C8.78626 62.2747 8.54193 62.9144 8.05326 63.4475C7.56459 63.9717 6.95153 64.2738 6.21409 64.3538ZM11.1811 62.4613H15.7924V63.9007H11.1811V66.4195H16.1122V67.8589H9.71512V58.5297H16.1122V59.9691H11.1811V62.4613ZM17.0087 67.8589V58.5297H18.7413L21.9132 64.4604L25.0851 58.5297H26.8176V67.8589H25.3516V60.902L22.4196 66.4062H21.4201L18.4747 60.902V67.8589H17.0087ZM29.1491 63.1543C29.1491 64.1672 29.4689 65.0024 30.1087 65.6599C30.7484 66.3085 31.5347 66.6328 32.4676 66.6328C33.4005 66.6328 34.1868 66.3085 34.8265 65.6599C35.4662 65.0024 35.7861 64.1672 35.7861 63.1543C35.7861 62.1592 35.4662 61.3418 34.8265 60.7021C34.1868 60.0535 33.4005 59.7292 32.4676 59.7292C31.5347 59.7292 30.7484 60.0535 30.1087 60.7021C29.4689 61.3418 29.1491 62.1592 29.1491 63.1543ZM27.6831 63.1543C27.6831 61.7328 28.1451 60.5644 29.0691 59.6492C29.9932 58.7252 31.126 58.2632 32.4676 58.2632C33.8092 58.2632 34.942 58.7252 35.8661 59.6492C36.7901 60.5644 37.2521 61.7328 37.2521 63.1543C37.2521 64.5848 36.7901 65.7665 35.8661 66.6994C34.942 67.6323 33.8092 68.0988 32.4676 68.0988C31.126 68.0988 29.9932 67.6323 29.0691 66.6994C28.1451 65.7665 27.6831 64.5848 27.6831 63.1543ZM41.2648 63.914C40.2075 63.7185 39.4034 63.3809 38.8525 62.9011C38.3017 62.4124 38.0262 61.7994 38.0262 61.0619C38.0262 60.2801 38.3194 59.6359 38.9058 59.1295C39.4922 58.6142 40.2386 58.3565 41.1448 58.3565C41.9356 58.3565 42.6464 58.5653 43.2772 58.9829C43.9169 59.4005 44.3789 59.9602 44.6633 60.6621L43.2639 61.1952C43.0862 60.751 42.8108 60.4 42.4376 60.1424C42.0644 59.8847 41.6468 59.7559 41.1848 59.7559C40.705 59.7559 40.3097 59.8758 39.9987 60.1157C39.6966 60.3556 39.5456 60.6621 39.5456 61.0353C39.5456 61.3818 39.701 61.6661 40.012 61.8882C40.323 62.1015 40.825 62.2792 41.518 62.4213C42.5575 62.6257 43.3572 62.9811 43.9169 63.4875C44.4856 63.9851 44.7699 64.5937 44.7699 65.3134C44.7699 66.0952 44.4633 66.7394 43.8503 67.2458C43.2461 67.7523 42.4731 68.0055 41.5313 68.0055C40.7228 68.0055 39.9898 67.8011 39.3323 67.3924C38.6837 66.9748 38.2128 66.4195 37.9196 65.7265L39.319 65.0468C39.5145 65.5266 39.8032 65.9087 40.1853 66.193C40.5762 66.4684 41.0116 66.6061 41.4913 66.6061C41.9978 66.6061 42.4154 66.4817 42.7441 66.233C43.0729 65.9753 43.2372 65.6599 43.2372 65.2867C43.2372 64.9402 43.0773 64.6603 42.7574 64.4471C42.4376 64.225 41.94 64.0473 41.2648 63.914ZM52.2036 58.5297V59.9691H49.2716V67.8589H47.8056V59.9691H44.8736V58.5297H52.2036ZM53.7807 63.1543C53.7807 64.1672 54.1006 65.0024 54.7403 65.6599C55.38 66.3085 56.1663 66.6328 57.0992 66.6328C58.0321 66.6328 58.8185 66.3085 59.4582 65.6599C60.0979 65.0024 60.4177 64.1672 60.4177 63.1543C60.4177 62.1592 60.0979 61.3418 59.4582 60.7021C58.8185 60.0535 58.0321 59.7292 57.0992 59.7292C56.1663 59.7292 55.38 60.0535 54.7403 60.7021C54.1006 61.3418 53.7807 62.1592 53.7807 63.1543ZM52.3147 63.1543C52.3147 61.7328 52.7767 60.5644 53.7008 59.6492C54.6248 58.7252 55.7576 58.2632 57.0992 58.2632C58.4408 58.2632 59.5737 58.7252 60.4977 59.6492C61.4217 60.5644 61.8837 61.7328 61.8837 63.1543C61.8837 64.5848 61.4217 65.7665 60.4977 66.6994C59.5737 67.6323 58.4408 68.0988 57.0992 68.0988C55.7576 68.0988 54.6248 67.6323 53.7008 66.6994C52.7767 65.7665 52.3147 64.5848 52.3147 63.1543Z" fill="white"/>
<circle cx="32.5494" cy="63.3431" r="2.02474" fill="white"/>
<circle cx="57.1456" cy="63.3431" r="2.02474" fill="white"/>
</svg>
